<svg version="1" xmlns="http://www.w3.org/2000/svg" width="1333.333" height="1333.333" viewBox="0 0 1000.000000 1000.000000"><path d="M89.2 51.5C69.8 55.7 54.3 72.1 51 91.8c-.7 4.8-1 51.3-.8 162.7l.3 156 2.4 6c3.3 8.1 6.5 13 12.6 19.1 5.8 5.8 17.2 11.9 25 13.4 3.1.6 65.3.8 162.5.7l157.5-.2 6-2.4c17-6.8 28.6-20.1 32-36.7 1.3-6.3 1.5-27.9 1.5-160.1 0-94.2-.4-155.1-1-158.7-3.1-19.2-18.7-35.5-38.2-40.1-9.1-2.1-311.9-2.1-321.6 0zM588.7 51.6c-18.7 4.5-32.8 18.9-37.2 37.9-1.4 5.7-1.5 26.5-1.3 163.7.3 155.8.3 157.3 2.3 162.3 5.6 13.6 14.2 23.5 24.7 28.8 11.9 5.9 5.3 5.7 173.3 5.7 168.5 0 160.2.2 172.3-5.9 11-5.6 19.3-15 24.3-27.6l2.4-6 .3-156c.2-113 0-157.9-.9-162.8-3.2-19.5-18.5-35.6-38.1-40.2-9.2-2.1-313.2-2.1-322.1.1zM89.4 551.5c-18.8 4.1-33.9 19.4-37.9 38.2-2.1 10-2.2 310.4-.1 320.4 4.1 19.1 18.7 33.9 37.8 38.4 9.5 2.2 312.2 2.2 321.6 0 19-4.5 33.2-18.7 37.7-37.7 1.3-5.4 1.5-27.1 1.4-160.8 0-95.1-.4-156.4-1-159.5-1.2-6.2-5.9-16.5-10-21.6-4.5-5.8-13.4-12.2-21.4-15.5l-7-2.9-157.5-.2c-128.8-.1-158.6.1-163.6 1.2zM593 550.7c-10.6 1.6-20 6.4-27.5 13.7-6.4 6.3-9.8 11.6-12.7 19.8l-2.3 6.3v319l2.3 6.4c2.8 7.8 8.7 16.6 14.4 21.6 5.7 5 17 10.3 24.4 11.5 3.6.6 64.7 1 159.4 1 167.1 0 159.7.2 171.3-5.6 13.5-6.8 22.6-18.6 26.2-33.8 2.2-9.3 2.2-312.1 0-321.4-3.3-13.7-12.5-26-24.5-32.6-12.8-6.9-2.7-6.6-174-6.4-85 0-155.6.2-157 .5z"/></svg>